<?xml version="1.0" encoding="utf-8"?>
<!-- Generator: Adobe Illustrator 17.0.0, SVG Export Plug-In . SVG Version: 6.00 Build 0)  -->
<!DOCTYPE svg PUBLIC "-//W3C//DTD SVG 1.1//EN" "http://www.w3.org/Graphics/SVG/1.1/DTD/svg11.dtd">
<svg version="1.1" id="Layer_1" xmlns="http://www.w3.org/2000/svg" xmlns:xlink="http://www.w3.org/1999/xlink" x="0px" y="0px"
	 width="40.5px" height="174px" viewBox="0 0 40.5 174" style="enable-background:new 0 0 40.5 174;" xml:space="preserve">
<style type="text/css">
	.st0{opacity:0.9;fill:#16479D;}
	.st1{opacity:0.9;fill:#F7F7F7;}
	.st2{opacity:0.9;}
	.st3{fill:#0EA4CC;}
	.st4{fill:#F7F7F7;}
	.st5{fill:#0071BC;}
	.st6{fill:#FFFFFF;}
</style>
<g>
	<circle class="st0" cx="12.9" cy="40.2" r="11.3"/>
	<path class="st1" d="M15.2,38.4h-1.4v-0.9c0-0.3,0.2-0.4,0.4-0.4c0.2,0,1,0,1,0v-1.5l-1.3,0c-1.5,0-1.8,1.1-1.8,1.8v1h-0.9v1.5H12
		c0,2,0,4.4,0,4.4h1.8c0,0,0-2.4,0-4.4h1.2L15.2,38.4z"/>
</g>
<g class="st2">
	<circle class="st3" cx="12.9" cy="12.7" r="11.3"/>
	<path class="st4" d="M17.8,9.9c-0.3,0.1-0.7,0.2-1.1,0.3c0.4-0.2,0.7-0.6,0.8-1c-0.4,0.2-0.7,0.4-1.2,0.4C16,9.2,15.5,9,15,9
		c-1,0-1.8,0.8-1.8,1.8c0,0.1,0,0.3,0,0.4c-1.5-0.1-2.9-0.8-3.8-1.9c-0.2,0.3-0.2,0.6-0.2,0.9c0,0.6,0.3,1.2,0.8,1.5
		c-0.3,0-0.6-0.1-0.8-0.2c0,0,0,0,0,0c0,0.9,0.6,1.6,1.5,1.8c-0.2,0-0.3,0.1-0.5,0.1c-0.1,0-0.2,0-0.3,0c0.2,0.7,0.9,1.3,1.7,1.3
		c-0.6,0.5-1.4,0.8-2.3,0.8c-0.1,0-0.3,0-0.4,0c0.8,0.5,1.8,0.8,2.8,0.8c3.4,0,5.2-2.8,5.2-5.2c0-0.1,0-0.2,0-0.2
		C17.2,10.6,17.5,10.2,17.8,9.9z"/>
</g>
<g class="st2">
	<circle class="st5" cx="12.9" cy="67.7" r="11.3"/>
	<g>
		<g>
			<path class="st6" d="M16.1,66.1L16.1,66.1c-0.4-0.6-1.3-1.4-2.3-2.3c-0.7-0.8-0.8-1.7-0.9-2v0l0,0v0v0c0,0.4-0.1,1.3-0.9,2
				c-0.8,0.8-1.5,1.4-2,2c-0.1,0.1-0.2,0.2-0.3,0.4c0,0,0,0,0,0h0c-0.5,0.6-0.7,1.4-0.7,2.2c0,2.1,1.7,3.8,3.8,3.8
				c2.1,0,3.8-1.7,3.8-3.8C16.8,67.5,16.5,66.7,16.1,66.1z"/>
		</g>
	</g>
</g>
<g>
	<g>
		<g>
			<path class="st6" d="M25.1,104.8c0.5,0.3,0.8,0.8,0.8,1.3c0.1,0.8-0.3,1.6-1.1,2.3c-0.9,0.8-2.5,1.6-4,2.2
				c-0.2,0.5-0.4,1.2-0.8,1.8c1.9-0.6,4.4-1.7,5.7-2.9c1.1-1,1.7-2.3,1.6-3.5c-0.1-1-0.6-1.9-1.4-2.4c-1.3-0.8-2.8-0.4-3.7,0
				c-0.1,0.5-0.3,1.8-0.3,1.8C21.9,105.5,23.7,104,25.1,104.8z"/>
			<path class="st6" d="M10,114h7.8c2-1.4,2.5-3.7,2.8-4.6c0.3-1.2,1-5.4,1.2-6.6c-0.6,0-15,0-15.7,0c0.2,1.2,0.9,5.3,1.2,6.6
				C7.5,110.3,8,112.6,10,114z"/>
			<rect x="8" y="114" class="st6" width="12" height="2"/>
		</g>
	</g>
	<g>
		<path class="st6" d="M10.7,102.2c-0.2-0.3-0.4-1.3-0.2-1.9c0.2-0.4,0.5-0.5,0.7-0.7c0.2-0.1,0.3-0.1,0.3-0.2
			c0.3-0.5,0.2-0.7-0.3-1.1c-0.3-0.3-0.6-0.6-0.7-1.1c-0.2-0.9,0.3-1.3,0.8-1.6c0.4-0.3,0.6-0.5,0.6-0.8c0-0.1-0.3-0.5-0.4-0.7
			c-0.4-0.5-0.8-1-0.6-1.5c0-0.2,0.2-0.4,0.5-0.5l0.3,0.7c0,0-0.1,0-0.1,0c0,0.1,0.3,0.6,0.5,0.8c0.3,0.4,0.6,0.7,0.6,1.1
			c0,0.8-0.5,1.2-0.9,1.5c-0.4,0.3-0.5,0.4-0.5,0.8c0.1,0.2,0.3,0.5,0.5,0.7c0.4,0.4,1.1,1.1,0.4,2.1c-0.2,0.3-0.4,0.4-0.6,0.5
			c-0.2,0.1-0.3,0.2-0.3,0.3c-0.1,0.2,0,1,0.1,1.2L10.7,102.2z"/>
	</g>
	<g>
		<path class="st6" d="M13.1,102c-0.2-0.3-0.4-1.4-0.2-1.9c0.2-0.4,0.5-0.6,0.7-0.7c0.2-0.1,0.3-0.1,0.3-0.2
			c0.3-0.5,0.2-0.7-0.3-1.2c-0.3-0.3-0.6-0.6-0.7-1.1c-0.2-0.9,0.3-1.3,0.8-1.6c0.4-0.3,0.6-0.5,0.6-0.9c0-0.1-0.3-0.5-0.4-0.7
			c-0.4-0.5-0.8-1-0.6-1.5c0-0.2,0.2-0.4,0.5-0.5l0.3,0.7c0,0-0.1,0-0.1,0c0,0.1,0.3,0.6,0.5,0.8c0.3,0.4,0.6,0.8,0.6,1.1
			c0,0.8-0.5,1.2-0.9,1.5c-0.4,0.3-0.6,0.5-0.5,0.8c0.1,0.2,0.3,0.5,0.5,0.7c0.4,0.4,1.1,1.1,0.4,2.2c-0.2,0.3-0.4,0.4-0.6,0.5
			c-0.2,0.1-0.3,0.2-0.3,0.3c-0.1,0.2,0,1,0.1,1.2L13.1,102z"/>
	</g>
</g>
<g>
	<g>
		<path class="st6" d="M13.3,158.5c0,0.2,0.2,0.4,0.4,0.4l7,0.1c0.2,0,0.4-0.2,0.4-0.4l0-0.9l-7.8-0.1L13.3,158.5z"/>
		<path class="st6" d="M12.1,137.8c-0.5,0.1-0.7,0.4-0.6,0.8l0,0c0.1,0.3,0.5,0.5,1,0.4l18.8-3.6c0.5-0.1,0.7-0.4,0.6-0.8l0,0
			c-0.1-0.3-0.5-0.5-1-0.4L12.1,137.8z"/>
		<path class="st6" d="M11.5,136.5c-0.4,0.1-0.6,0.5-0.5,0.8l0,0c0.2,0.3,0.6,0.5,1.1,0.4l18-4.9c0.4-0.1,0.7-0.5,0.5-0.8l0,0
			c-0.2-0.3-0.6-0.5-1.1-0.4L11.5,136.5z"/>
		<g>
			<path class="st6" d="M15.6,147.7c-0.2-0.4-0.5-1.6-0.2-2.3c0.2-0.5,0.6-0.7,0.8-0.8c0.2-0.1,0.3-0.2,0.4-0.3
				c0.4-0.6,0.2-0.8-0.4-1.4c-0.4-0.3-0.8-0.7-0.9-1.3c-0.3-1.1,0.4-1.6,0.9-1.9c0.5-0.3,0.7-0.6,0.7-1c0-0.1-0.3-0.6-0.5-0.8
				c-0.5-0.6-0.9-1.2-0.8-1.8c0.1-0.2,0.2-0.5,0.6-0.6l0.3,0.9c-0.1,0-0.1,0-0.1,0c0,0.1,0.4,0.7,0.6,1c0.4,0.5,0.7,0.9,0.7,1.3
				c0,1-0.6,1.5-1.1,1.8c-0.5,0.4-0.7,0.5-0.6,1c0.1,0.3,0.4,0.6,0.6,0.8c0.5,0.5,1.4,1.3,0.5,2.6c-0.2,0.3-0.5,0.5-0.7,0.6
				c-0.2,0.1-0.3,0.2-0.4,0.3c-0.1,0.3,0,1.2,0.2,1.4L15.6,147.7z"/>
		</g>
		<g>
			<path class="st6" d="M18.6,147.5c-0.2-0.4-0.5-1.7-0.2-2.4c0.2-0.5,0.6-0.7,0.8-0.8c0.2-0.1,0.3-0.2,0.4-0.3
				c0.4-0.6,0.2-0.8-0.4-1.4c-0.4-0.4-0.8-0.8-0.9-1.3c-0.3-1.1,0.4-1.6,0.9-2c0.5-0.4,0.7-0.6,0.7-1.1c0-0.1-0.3-0.6-0.5-0.8
				c-0.5-0.6-0.9-1.3-0.8-1.9c0.1-0.2,0.2-0.5,0.6-0.6l0.3,0.9c-0.1,0-0.1,0-0.1,0c0,0.1,0.4,0.7,0.6,1c0.4,0.5,0.7,0.9,0.7,1.4
				c0,1-0.6,1.5-1.1,1.9c-0.5,0.4-0.7,0.6-0.6,1c0.1,0.3,0.3,0.6,0.6,0.9c0.5,0.5,1.4,1.3,0.5,2.6c-0.2,0.3-0.5,0.5-0.7,0.6
				c-0.2,0.1-0.3,0.2-0.4,0.4c-0.1,0.3,0,1.2,0.2,1.5L18.6,147.5z"/>
		</g>
		<g>
			<path class="st6" d="M13,148.4c-0.2-0.4-0.5-1.6-0.2-2.3c0.2-0.5,0.6-0.7,0.8-0.8c0.2-0.1,0.3-0.2,0.4-0.3
				c0.4-0.6,0.2-0.8-0.4-1.4c-0.4-0.3-0.8-0.7-0.9-1.3c-0.3-1.1,0.4-1.6,0.9-1.9c0.5-0.3,0.7-0.6,0.7-1c0-0.1-0.3-0.6-0.5-0.8
				c-0.5-0.6-0.9-1.2-0.8-1.8c0.1-0.2,0.2-0.5,0.6-0.6L14,137c-0.1,0-0.1,0-0.1,0c0,0.1,0.4,0.7,0.6,1c0.4,0.5,0.7,0.9,0.7,1.3
				c0,1-0.6,1.5-1.1,1.8c-0.5,0.4-0.7,0.5-0.6,1c0.1,0.3,0.4,0.6,0.6,0.8c0.5,0.5,1.4,1.3,0.5,2.6c-0.2,0.3-0.5,0.5-0.7,0.6
				c-0.2,0.1-0.3,0.2-0.4,0.3c-0.1,0.3,0,1.2,0.2,1.4L13,148.4z"/>
		</g>
	</g>
</g>
<g>
	<path class="st6" d="M17.2,155.7c4.5,0,8.4-1.7,10-5.7H7.1C8.8,154,12.6,155.7,17.2,155.7z"/>
	<path class="st6" d="M28,146.4c0-0.1,0,0.6,0-0.4H6.3c0,1,0,0.3,0,0.4c0,0.5,0.1,1.6,0.2,1.6h21.4C28,148,28,146.9,28,146.4z"/>
</g>
</svg>
