<?xml version="1.0" encoding="utf-8"?>
<!-- Generator: Adobe Illustrator 17.0.0, SVG Export Plug-In . SVG Version: 6.00 Build 0)  -->
<!DOCTYPE svg PUBLIC "-//W3C//DTD SVG 1.1//EN" "http://www.w3.org/Graphics/SVG/1.1/DTD/svg11.dtd">
<svg version="1.1" id="Layer_1" xmlns="http://www.w3.org/2000/svg" xmlns:xlink="http://www.w3.org/1999/xlink" x="0px" y="0px"
	 width="40px" height="232px" viewBox="0 0 40 232" enable-background="new 0 0 40 232" xml:space="preserve">
<g>
	<circle opacity="0.9" fill="#16479D" cx="12.938" cy="40.157" r="11.257"/>
	<path opacity="0.9" fill="#F7F7F7" d="M15.211,38.38h-1.389v-0.911c0-0.342,0.227-0.422,0.386-0.422c0.16,0,0.981,0,0.981,0v-1.504
		l-1.35-0.006c-1.499,0-1.84,1.122-1.84,1.841v1.002h-0.866v1.55H12c0,1.989,0,4.386,0,4.386h1.823c0,0,0-2.42,0-4.386h1.23
		L15.211,38.38z"/>
</g>
<g opacity="0.9">
	<circle fill="#0EA4CC" cx="12.938" cy="12.657" r="11.257"/>
	<path fill="#F7F7F7" d="M17.774,9.881c-0.33,0.146-0.684,0.245-1.056,0.289c0.38-0.226,0.67-0.586,0.808-1.016
		C17.171,9.365,16.778,9.518,16.36,9.6c-0.335-0.356-0.811-0.579-1.341-0.579c-1.014,0-1.836,0.822-1.836,1.836
		c0,0.144,0.016,0.284,0.048,0.418c-1.526-0.075-2.88-0.808-3.786-1.918c-0.158,0.272-0.249,0.587-0.249,0.923
		c0,0.637,0.324,1.199,0.817,1.529c-0.301-0.01-0.584-0.093-0.832-0.23c-0.001,0.007-0.001,0.015-0.001,0.023
		c0,0.89,0.634,1.632,1.474,1.802c-0.154,0.041-0.316,0.063-0.483,0.063c-0.119,0-0.234-0.011-0.347-0.033
		c0.234,0.73,0.912,1.261,1.716,1.275c-0.628,0.492-1.42,0.787-2.281,0.787c-0.148,0-0.293-0.009-0.438-0.026
		c0.812,0.522,1.778,0.825,2.814,0.825c3.378,0,5.227-2.799,5.227-5.226c0-0.079-0.003-0.159-0.006-0.237
		C17.216,10.573,17.527,10.25,17.774,9.881z"/>
</g>
<g opacity="0.9">
	<circle fill="#0071BC" cx="12.938" cy="67.657" r="11.257"/>
	<g>
		<g>
			<path fill="#FFFFFF" d="M16.085,66.078L16.085,66.078c-0.443-0.615-1.315-1.36-2.261-2.348c-0.72-0.752-0.839-1.656-0.856-2.045
				v-0.005l0,0.002v-0.002v0.005c-0.016,0.39-0.136,1.294-0.856,2.045c-0.752,0.785-1.467,1.417-1.952,1.952
				c-0.111,0.118-0.215,0.243-0.31,0.375c-0.005,0.007-0.011,0.014-0.016,0.021h0.001c-0.451,0.63-0.717,1.4-0.717,2.234
				c0,2.122,1.72,3.842,3.842,3.842c2.122,0,3.842-1.72,3.842-3.842C16.802,67.479,16.536,66.708,16.085,66.078z"/>
		</g>
	</g>
</g>
<g>
	<g>
		<g>
			<path fill="#FFFFFF" d="M25.058,104.84c0.479,0.281,0.786,0.771,0.843,1.346c0.076,0.788-0.327,1.635-1.107,2.321
				c-0.927,0.816-2.55,1.587-4.022,2.152c-0.181,0.538-0.434,1.155-0.802,1.768c1.87-0.61,4.375-1.669,5.745-2.874
				c1.12-0.986,1.693-2.261,1.573-3.502c-0.1-1.026-0.577-1.907-1.447-2.416c-1.333-0.778-2.768-0.42-3.672,0.015
				c-0.075,0.462-0.313,1.824-0.313,1.824C21.871,105.461,23.658,104.025,25.058,104.84z"/>
			<path fill="#FFFFFF" d="M9.991,113.965h7.781c1.959-1.379,2.53-3.658,2.771-4.616c0.312-1.249,0.987-5.384,1.181-6.582
				c-0.639,0-15.045,0-15.683,0c0.193,1.198,0.87,5.333,1.18,6.582C7.46,110.307,8.032,112.586,9.991,113.965z"/>
			<rect x="8" y="114" fill="#FFFFFF" width="12" height="2"/>
		</g>
	</g>
	<g>
		<path fill="#FFFFFF" d="M10.703,102.201c-0.202-0.315-0.43-1.346-0.199-1.871c0.169-0.385,0.469-0.539,0.688-0.652
			c0.164-0.085,0.259-0.137,0.327-0.239c0.32-0.476,0.168-0.659-0.319-1.117c-0.297-0.279-0.633-0.596-0.745-1.054
			c-0.211-0.869,0.344-1.279,0.75-1.578c0.376-0.278,0.588-0.454,0.57-0.837c-0.015-0.118-0.279-0.461-0.437-0.665
			c-0.376-0.489-0.765-0.994-0.637-1.47c0.043-0.159,0.162-0.376,0.487-0.509l0.286,0.699c-0.043,0.017-0.056,0.03-0.056,0.03
			c0.001,0.118,0.338,0.554,0.518,0.789c0.309,0.401,0.576,0.748,0.592,1.09c0.039,0.806-0.49,1.196-0.876,1.481
			c-0.42,0.311-0.549,0.44-0.464,0.791c0.059,0.241,0.287,0.455,0.528,0.682c0.448,0.421,1.125,1.057,0.43,2.09
			c-0.18,0.268-0.418,0.391-0.608,0.489c-0.19,0.098-0.284,0.151-0.343,0.285c-0.1,0.227,0.028,0.979,0.144,1.16L10.703,102.201z"/>
	</g>
	<g>
		<path fill="#FFFFFF" d="M13.137,102.005c-0.202-0.327-0.431-1.393-0.199-1.936c0.169-0.398,0.469-0.558,0.688-0.674
			c0.163-0.087,0.259-0.142,0.328-0.248c0.32-0.493,0.168-0.682-0.319-1.156c-0.296-0.289-0.632-0.615-0.745-1.089
			c-0.211-0.898,0.345-1.323,0.751-1.632c0.376-0.287,0.588-0.469,0.57-0.866c-0.014-0.122-0.278-0.476-0.437-0.688
			c-0.375-0.505-0.764-1.027-0.635-1.52c0.042-0.165,0.162-0.389,0.486-0.527l0.286,0.723c-0.042,0.019-0.056,0.032-0.056,0.032
			c0.002,0.121,0.337,0.573,0.518,0.815c0.309,0.415,0.575,0.773,0.591,1.127c0.039,0.834-0.49,1.237-0.876,1.532
			c-0.421,0.321-0.55,0.456-0.464,0.818c0.058,0.248,0.286,0.471,0.527,0.705c0.447,0.435,1.123,1.092,0.429,2.161
			c-0.18,0.277-0.418,0.404-0.608,0.505c-0.19,0.102-0.284,0.157-0.343,0.296c-0.1,0.234,0.028,1.013,0.144,1.199L13.137,102.005z"
			/>
	</g>
</g>
<g>
	<g>
		<path fill="#FFFFFF" d="M13.269,158.49c-0.003,0.197,0.156,0.36,0.354,0.363l7.048,0.089c0.198,0.003,0.36-0.156,0.363-0.354
			l0.012-0.918l-7.764-0.1L13.269,158.49z"/>
		<path fill="#FFFFFF" d="M12.131,137.755c-0.45,0.087-0.737,0.425-0.642,0.755l0,0c0.097,0.33,0.54,0.526,0.991,0.439l18.763-3.619
			c0.451-0.087,0.739-0.424,0.642-0.754l0,0c-0.096-0.331-0.54-0.527-0.99-0.441L12.131,137.755z"/>
		<path fill="#FFFFFF" d="M11.511,136.549c-0.433,0.118-0.649,0.472-0.486,0.79l0,0c0.165,0.319,0.648,0.481,1.08,0.363
			l17.997-4.912c0.433-0.118,0.65-0.471,0.486-0.79l0,0c-0.165-0.319-0.648-0.481-1.081-0.363L11.511,136.549z"/>
		<g>
			<path fill="#FFFFFF" d="M15.62,147.731c-0.247-0.385-0.525-1.644-0.243-2.285c0.206-0.47,0.572-0.658,0.839-0.796
				c0.2-0.103,0.316-0.167,0.4-0.292c0.391-0.582,0.205-0.805-0.39-1.364c-0.362-0.341-0.773-0.728-0.91-1.287
				c-0.259-1.061,0.42-1.561,0.916-1.926c0.459-0.339,0.718-0.554,0.696-1.022c-0.017-0.144-0.34-0.563-0.534-0.813
				c-0.459-0.597-0.933-1.213-0.777-1.794c0.052-0.194,0.198-0.459,0.595-0.622l0.35,0.854c-0.053,0.021-0.069,0.037-0.069,0.037
				c0.002,0.143,0.413,0.676,0.633,0.963c0.377,0.489,0.703,0.913,0.723,1.331c0.048,0.984-0.598,1.461-1.069,1.808
				c-0.514,0.379-0.671,0.538-0.567,0.966c0.072,0.293,0.35,0.555,0.645,0.832c0.547,0.514,1.373,1.29,0.525,2.552
				c-0.219,0.327-0.51,0.477-0.742,0.597c-0.232,0.12-0.346,0.185-0.419,0.348c-0.122,0.276,0.035,1.196,0.176,1.416L15.62,147.731z
				"/>
		</g>
		<g>
			<path fill="#FFFFFF" d="M18.591,147.491c-0.247-0.399-0.526-1.7-0.243-2.363c0.206-0.486,0.572-0.681,0.839-0.823
				c0.199-0.106,0.316-0.174,0.4-0.302c0.39-0.602,0.205-0.832-0.391-1.411c-0.362-0.352-0.772-0.751-0.909-1.33
				c-0.258-1.097,0.421-1.615,0.917-1.993c0.459-0.351,0.718-0.573,0.696-1.057c-0.017-0.149-0.34-0.582-0.533-0.841
				c-0.458-0.616-0.933-1.254-0.776-1.855c0.052-0.201,0.198-0.475,0.594-0.643l0.349,0.882c-0.052,0.022-0.068,0.039-0.068,0.039
				c0.002,0.148,0.412,0.699,0.632,0.995c0.377,0.506,0.702,0.943,0.722,1.376c0.047,1.018-0.598,1.511-1.07,1.871
				c-0.514,0.392-0.672,0.557-0.567,0.999c0.071,0.303,0.349,0.575,0.643,0.861c0.546,0.531,1.372,1.333,0.524,2.638
				c-0.22,0.338-0.51,0.493-0.743,0.617c-0.232,0.124-0.346,0.191-0.418,0.36c-0.122,0.286,0.034,1.236,0.175,1.464L18.591,147.491z
				"/>
		</g>
		<g>
			<path fill="#FFFFFF" d="M13.044,148.386c-0.247-0.385-0.525-1.643-0.243-2.284c0.207-0.47,0.572-0.659,0.839-0.796
				c0.2-0.102,0.317-0.167,0.4-0.292c0.391-0.582,0.205-0.805-0.391-1.365c-0.362-0.341-0.773-0.728-0.91-1.287
				c-0.258-1.061,0.42-1.561,0.916-1.926c0.459-0.339,0.718-0.554,0.695-1.021c-0.017-0.144-0.34-0.563-0.533-0.814
				c-0.459-0.597-0.934-1.213-0.777-1.794c0.053-0.194,0.198-0.459,0.595-0.622l0.35,0.854c-0.052,0.021-0.068,0.037-0.068,0.037
				c0.001,0.144,0.412,0.677,0.633,0.963c0.377,0.489,0.702,0.912,0.723,1.33c0.047,0.985-0.598,1.462-1.07,1.809
				c-0.513,0.379-0.67,0.538-0.566,0.966c0.071,0.293,0.35,0.556,0.645,0.833c0.546,0.514,1.373,1.29,0.525,2.551
				c-0.22,0.327-0.51,0.476-0.743,0.596c-0.232,0.12-0.346,0.185-0.418,0.348c-0.121,0.277,0.035,1.196,0.176,1.416L13.044,148.386z
				"/>
		</g>
	</g>
</g>
<g>
	<path fill="#FFFFFF" d="M17.157,155.667c4.508,0,8.376-1.667,10.025-5.667H7.131C8.781,154,12.648,155.667,17.157,155.667z"/>
	<path fill="#FFFFFF" d="M28.034,146.399c0-0.135-0.017,0.601-0.023-0.399H6.303c-0.006,1-0.023,0.265-0.023,0.399
		c0,0.547,0.066,1.601,0.173,1.601h21.409C27.968,148,28.034,146.946,28.034,146.399z"/>
</g>
<path fill-rule="evenodd" clip-rule="evenodd" fill="#52E2AE" d="M25.36,181c-1.116,0-2.138,0-3.219,0c0-2.822,0-5.632,0-8.503
	c-0.738,0-1.421,0-2.142,0c0-0.993,0-1.927,0-2.939c0.687,0,1.367,0,2.108,0c0-0.498-0.02-0.921,0.005-1.341
	c0.041-0.683,0.057-1.374,0.177-2.046c0.223-1.241,1.031-1.996,2.27-2.117c1.106-0.108,2.232-0.022,3.393-0.022
	c0,0.874,0,1.81,0,2.869c-0.537,0-1.091-0.022-1.641,0.005c-0.753,0.036-0.948,0.242-0.972,0.991
	c-0.016,0.517-0.003,1.036-0.003,1.642c0.888,0,1.752,0,2.662,0c-0.11,1.025-0.21,1.956-0.314,2.925c-0.784,0-1.527,0-2.326,0
	C25.36,175.315,25.36,178.124,25.36,181z"/>
<path fill-rule="evenodd" clip-rule="evenodd" fill="#52E2AE" d="M35.178,196.222c0.585-0.165,1.168-0.33,1.751-0.494
	c0.023,0.022,0.048,0.044,0.071,0.066c-0.444,0.459-0.869,0.94-1.341,1.367c-0.256,0.233-0.392,0.441-0.395,0.81
	c-0.04,4.214-2.404,7.79-6.29,9.299c-2.96,1.149-5.894,0.941-8.696-0.617c-0.095-0.053-0.183-0.116-0.278-0.214
	c1.818,0.065,3.499-0.309,5.024-1.496c-0.786-0.075-1.451-0.292-2.027-0.737c-0.571-0.442-0.985-0.997-1.2-1.728
	c0.472,0,0.929,0,1.384,0c-1.639-0.616-2.533-1.741-2.634-3.505c0.485,0.138,0.929,0.266,1.375,0.393
	c0.017-0.025,0.035-0.047,0.054-0.071c-1.521-1.288-1.788-2.827-0.96-4.678c1.909,2.304,4.283,3.57,7.209,3.676
	c0-0.358-0.018-0.698,0.003-1.036c0.112-1.977,1.966-3.487,3.936-3.227c0.757,0.099,1.411,0.386,1.977,0.904
	c0.087,0.078,0.268,0.133,0.375,0.099c0.543-0.167,1.077-0.367,1.611-0.559c0.112-0.04,0.217-0.095,0.386-0.17
	c-0.248,0.816-0.719,1.382-1.364,1.821C35.161,196.157,35.169,196.19,35.178,196.222z"/>
<path fill="#52E2AE" d="M27.478,214c1.493,2.044,2.996,4.06,4.444,6.106c0.679,0.959,1.108,2.014,1.076,3.178
	c-0.069,2.515-2.362,4.57-5.264,4.709c-2.789,0.134-5.321-1.748-5.685-4.201c-0.15-1.007,0.037-1.963,0.549-2.849
	c0.496-0.86,1.069-1.688,1.649-2.507c1.041-1.468,2.112-2.918,3.171-4.376C27.437,214.036,27.463,214.015,27.478,214"/>
<path fill-rule="evenodd" clip-rule="evenodd" fill="#B4E0EB" d="M6.36,181c-1.116,0-2.138,0-3.219,0c0-2.822,0-5.632,0-8.503
	c-0.738,0-1.421,0-2.142,0c0-0.993,0-1.927,0-2.939c0.687,0,1.367,0,2.108,0c0-0.498-0.02-0.921,0.005-1.341
	c0.041-0.683,0.057-1.374,0.177-2.046c0.223-1.241,1.031-1.996,2.27-2.117c1.106-0.108,2.232-0.022,3.393-0.022
	c0,0.874,0,1.81,0,2.869c-0.537,0-1.091-0.022-1.641,0.005c-0.753,0.036-0.948,0.242-0.972,0.991
	c-0.016,0.517-0.003,1.036-0.003,1.642c0.888,0,1.752,0,2.662,0c-0.11,1.025-0.21,1.956-0.314,2.925c-0.784,0-1.527,0-2.326,0
	C6.36,175.315,6.36,178.124,6.36,181z"/>
<path fill-rule="evenodd" clip-rule="evenodd" fill="#B4E0EB" d="M16.178,196.222c0.585-0.165,1.168-0.33,1.751-0.494
	c0.023,0.022,0.048,0.044,0.071,0.066c-0.444,0.459-0.869,0.94-1.341,1.367c-0.256,0.233-0.392,0.441-0.395,0.81
	c-0.04,4.214-2.404,7.79-6.29,9.299c-2.96,1.149-5.894,0.941-8.696-0.617c-0.095-0.053-0.183-0.116-0.278-0.214
	c1.818,0.065,3.499-0.309,5.024-1.496c-0.786-0.075-1.451-0.292-2.027-0.737c-0.571-0.442-0.985-0.997-1.2-1.728
	c0.472,0,0.929,0,1.384,0c-1.639-0.616-2.533-1.741-2.634-3.505c0.485,0.138,0.929,0.266,1.375,0.393
	c0.017-0.025,0.035-0.047,0.054-0.071c-1.521-1.288-1.788-2.827-0.96-4.678c1.909,2.304,4.283,3.57,7.209,3.676
	c0-0.358-0.018-0.698,0.003-1.036c0.112-1.977,1.966-3.487,3.936-3.227c0.757,0.099,1.411,0.386,1.977,0.904
	c0.087,0.078,0.268,0.133,0.375,0.099c0.543-0.167,1.077-0.367,1.611-0.559c0.112-0.04,0.217-0.095,0.386-0.17
	c-0.248,0.816-0.719,1.382-1.364,1.821C16.161,196.157,16.169,196.19,16.178,196.222z"/>
<path fill="#B4E0EB" d="M6.478,214c1.493,2.044,2.996,4.06,4.444,6.106c0.679,0.959,1.108,2.014,1.076,3.178
	c-0.069,2.515-2.362,4.57-5.264,4.709c-2.789,0.134-5.321-1.748-5.685-4.201c-0.15-1.007,0.037-1.963,0.549-2.849
	c0.496-0.86,1.069-1.688,1.649-2.507c1.041-1.468,2.112-2.918,3.171-4.376C6.437,214.036,6.463,214.015,6.478,214"/>
</svg>
